<mxfile host="app.diagrams.net" modified="2021-09-13T13:54:17.269Z" agent="5.0 (Windows NT 10.0; Win64; x64) AppleWebKit/537.36 (KHTML, like Gecko) Chrome/93.0.4577.63 Safari/537.36 Edg/93.0.961.47" etag="XjZ6sf1ETmH34_ATgxPl" version="15.2.2" type="github">
  <diagram id="Pf4WqLPi2MoD2n6zhCEW" name="Page-1">
    <mxGraphModel dx="1523" dy="845" grid="1" gridSize="10" guides="1" tooltips="1" connect="1" arrows="1" fold="1" page="1" pageScale="1" pageWidth="1100" pageHeight="850" math="0" shadow="0">
      <root>
        <mxCell id="0" />
        <mxCell id="1" parent="0" />
        <mxCell id="dFHWu7-HV-Utm9xsT1JL-1" value="" style="strokeWidth=1;shadow=0;dashed=0;align=center;html=1;shape=mxgraph.mockup.containers.browserWindow;rSize=0;strokeColor=#666666;strokeColor2=#008cff;strokeColor3=#c4c4c4;mainText=,;recursiveResize=0;rotation=0;" vertex="1" parent="1">
          <mxGeometry x="120" y="60" width="800" height="1120" as="geometry" />
        </mxCell>
        <mxCell id="dFHWu7-HV-Utm9xsT1JL-2" value="Page 1" style="strokeWidth=1;shadow=0;dashed=0;align=center;html=1;shape=mxgraph.mockup.containers.anchor;fontSize=17;fontColor=#666666;align=left;" vertex="1" parent="dFHWu7-HV-Utm9xsT1JL-1">
          <mxGeometry x="60" y="12" width="110" height="26" as="geometry" />
        </mxCell>
        <mxCell id="dFHWu7-HV-Utm9xsT1JL-3" value="https://www.draw.io" style="strokeWidth=1;shadow=0;dashed=0;align=center;html=1;shape=mxgraph.mockup.containers.anchor;rSize=0;fontSize=17;fontColor=#666666;align=left;" vertex="1" parent="dFHWu7-HV-Utm9xsT1JL-1">
          <mxGeometry x="130" y="60" width="250" height="26" as="geometry" />
        </mxCell>
        <mxCell id="dFHWu7-HV-Utm9xsT1JL-15" value="tamilcinemainfo" style="html=1;shadow=0;dashed=0;fillColor=#343A40;strokeColor=none;fontSize=16;fontColor=#ffffff;align=left;spacing=15;rotation=0;" vertex="1" parent="dFHWu7-HV-Utm9xsT1JL-1">
          <mxGeometry y="110" width="800" height="110" as="geometry" />
        </mxCell>
        <mxCell id="dFHWu7-HV-Utm9xsT1JL-16" value="Home" style="fillColor=none;strokeColor=none;fontSize=14;fontColor=#ffffff;align=center;" vertex="1" parent="dFHWu7-HV-Utm9xsT1JL-15">
          <mxGeometry width="70" height="40" relative="1" as="geometry">
            <mxPoint x="580" y="35" as="offset" />
          </mxGeometry>
        </mxCell>
        <mxCell id="dFHWu7-HV-Utm9xsT1JL-17" value="Features" style="fillColor=none;strokeColor=none;fontSize=14;fontColor=#9A9DA0;align=center;" vertex="1" parent="dFHWu7-HV-Utm9xsT1JL-15">
          <mxGeometry width="70" height="40" relative="1" as="geometry">
            <mxPoint x="650" y="35" as="offset" />
          </mxGeometry>
        </mxCell>
        <mxCell id="dFHWu7-HV-Utm9xsT1JL-19" value="About" style="fillColor=none;strokeColor=none;fontSize=14;fontColor=#9A9DA0;align=center;" vertex="1" parent="dFHWu7-HV-Utm9xsT1JL-15">
          <mxGeometry width="80" height="40" relative="1" as="geometry">
            <mxPoint x="720" y="35" as="offset" />
          </mxGeometry>
        </mxCell>
        <mxCell id="dFHWu7-HV-Utm9xsT1JL-20" value="Search" style="html=1;shadow=0;dashed=0;shape=mxgraph.bootstrap.rrect;rSize=5;fontSize=14;fontColor=#1CA5B8;strokeColor=#1CA5B8;fillColor=none;" vertex="1" parent="dFHWu7-HV-Utm9xsT1JL-15">
          <mxGeometry x="1" width="70" height="40" relative="1" as="geometry">
            <mxPoint x="-370" y="35" as="offset" />
          </mxGeometry>
        </mxCell>
        <mxCell id="dFHWu7-HV-Utm9xsT1JL-21" value="Search" style="html=1;shadow=0;dashed=0;shape=mxgraph.bootstrap.rrect;rSize=5;fontSize=14;fontColor=#6C767D;strokeColor=#CED4DA;fillColor=#ffffff;align=left;spacing=10;" vertex="1" parent="dFHWu7-HV-Utm9xsT1JL-15">
          <mxGeometry x="1" width="180" height="40" relative="1" as="geometry">
            <mxPoint x="-560" y="35" as="offset" />
          </mxGeometry>
        </mxCell>
        <mxCell id="dFHWu7-HV-Utm9xsT1JL-22" value="&lt;span style=&quot;font-size: 40px&quot;&gt;&lt;font color=&quot;#ffffff&quot;&gt;&lt;br&gt;Find everything &lt;br&gt;about Tamil Cinema&lt;/font&gt;&lt;/span&gt;" style="html=1;shadow=0;dashed=0;shape=mxgraph.bootstrap.rrect;rSize=5;strokeColor=none;html=1;whiteSpace=wrap;fillColor=#343A40;fontColor=#474E4F;align=left;spacing=15;fontSize=14;verticalAlign=top;spacingTop=40;" vertex="1" parent="dFHWu7-HV-Utm9xsT1JL-1">
          <mxGeometry y="220" width="800" height="300" as="geometry" />
        </mxCell>
        <mxCell id="dFHWu7-HV-Utm9xsT1JL-24" value="Learn more" style="html=1;shadow=0;dashed=0;shape=mxgraph.bootstrap.rrect;rSize=5;fillColor=#0085FC;strokeColor=none;align=center;spacing=15;fontSize=14;fontColor=#ffffff;" vertex="1" parent="dFHWu7-HV-Utm9xsT1JL-22">
          <mxGeometry y="1" width="100" height="40" relative="1" as="geometry">
            <mxPoint x="15" y="-80" as="offset" />
          </mxGeometry>
        </mxCell>
        <mxCell id="dFHWu7-HV-Utm9xsT1JL-26" value="" style="sketch=0;outlineConnect=0;fontColor=#232F3E;gradientColor=none;fillColor=#FF9900;strokeColor=none;dashed=0;verticalLabelPosition=bottom;verticalAlign=top;align=center;html=1;fontSize=12;fontStyle=0;aspect=fixed;pointerEvents=1;shape=mxgraph.aws4.container_registry_image;" vertex="1" parent="dFHWu7-HV-Utm9xsT1JL-22">
          <mxGeometry x="424.69135802469134" y="97" width="190.61728395061726" height="190.61728395061726" as="geometry" />
        </mxCell>
        <mxCell id="dFHWu7-HV-Utm9xsT1JL-33" value="&lt;span style=&quot;color: rgb(33 , 37 , 41)&quot;&gt;Find where you can watch online a movie or a web series.&lt;/span&gt;" style="html=1;shadow=0;dashed=0;shape=mxgraph.bootstrap.rrect;rSize=5;strokeColor=none;html=1;whiteSpace=wrap;fillColor=#E9ECEF;fontColor=#474E4F;align=left;spacing=15;fontSize=14;verticalAlign=top;spacingTop=40;" vertex="1" parent="dFHWu7-HV-Utm9xsT1JL-1">
          <mxGeometry y="520" width="800" height="220" as="geometry" />
        </mxCell>
        <mxCell id="dFHWu7-HV-Utm9xsT1JL-27" value="&lt;span style=&quot;font-size: 20px&quot;&gt;&lt;b&gt;Find a content&lt;/b&gt;&lt;/span&gt;&lt;br style=&quot;font-size: 14px&quot;&gt;&lt;br style=&quot;font-size: 14px&quot;&gt;Find where you can watch online a movie or a web series." style="html=1;shadow=0;dashed=0;shape=mxgraph.bootstrap.rrect;rSize=5;strokeColor=#6C767D;html=1;whiteSpace=wrap;fillColor=#ffffff;fontColor=#212529;verticalAlign=bottom;align=left;spacing=20;spacingBottom=0;fontSize=14;" vertex="1" parent="dFHWu7-HV-Utm9xsT1JL-1">
          <mxGeometry x="5" y="920" width="250" height="180" as="geometry" />
        </mxCell>
        <mxCell id="dFHWu7-HV-Utm9xsT1JL-28" value="Streaming on" style="html=1;shadow=0;dashed=0;shape=mxgraph.bootstrap.topButton;rSize=5;perimeter=none;whiteSpace=wrap;fillColor=#F7F7F7;strokeColor=#6C767D;fontColor=#6C767D;resizeWidth=1;fontSize=18;align=left;spacing=20;" vertex="1" parent="dFHWu7-HV-Utm9xsT1JL-27">
          <mxGeometry width="250" height="50" relative="1" as="geometry" />
        </mxCell>
        <mxCell id="dFHWu7-HV-Utm9xsT1JL-29" value="&lt;span style=&quot;font-size: 20px&quot;&gt;&lt;b&gt;The people of Tamil Cinema&lt;/b&gt;&lt;/span&gt;&lt;br style=&quot;font-size: 14px&quot;&gt;&lt;br style=&quot;font-size: 14px&quot;&gt;Find more about your favorite stars, directors and technicians in Tamil cinema" style="html=1;shadow=0;dashed=0;shape=mxgraph.bootstrap.rrect;rSize=5;strokeColor=#6C767D;html=1;whiteSpace=wrap;fillColor=#ffffff;fontColor=#212529;verticalAlign=bottom;align=left;spacing=20;spacingBottom=0;fontSize=14;" vertex="1" parent="dFHWu7-HV-Utm9xsT1JL-1">
          <mxGeometry x="275" y="920" width="250" height="180" as="geometry" />
        </mxCell>
        <mxCell id="dFHWu7-HV-Utm9xsT1JL-30" value="People" style="html=1;shadow=0;dashed=0;shape=mxgraph.bootstrap.topButton;rSize=5;perimeter=none;whiteSpace=wrap;fillColor=#F7F7F7;strokeColor=#6C767D;fontColor=#6C767D;resizeWidth=1;fontSize=18;align=left;spacing=20;" vertex="1" parent="dFHWu7-HV-Utm9xsT1JL-29">
          <mxGeometry width="250" height="50" relative="1" as="geometry" />
        </mxCell>
        <mxCell id="dFHWu7-HV-Utm9xsT1JL-31" value="&lt;span style=&quot;font-size: 20px&quot;&gt;&lt;b&gt;Latest News &amp;amp; Updates&lt;/b&gt;&lt;/span&gt;&lt;br style=&quot;font-size: 14px&quot;&gt;&lt;br style=&quot;font-size: 14px&quot;&gt;Find what is trending about your favorite movie, star or an event across the web." style="html=1;shadow=0;dashed=0;shape=mxgraph.bootstrap.rrect;rSize=5;strokeColor=#6C767D;html=1;whiteSpace=wrap;fillColor=#ffffff;fontColor=#212529;verticalAlign=bottom;align=left;spacing=20;spacingBottom=0;fontSize=14;" vertex="1" parent="dFHWu7-HV-Utm9xsT1JL-1">
          <mxGeometry x="545" y="920" width="250" height="180" as="geometry" />
        </mxCell>
        <mxCell id="dFHWu7-HV-Utm9xsT1JL-32" value="Updates" style="html=1;shadow=0;dashed=0;shape=mxgraph.bootstrap.topButton;rSize=5;perimeter=none;whiteSpace=wrap;fillColor=#F7F7F7;strokeColor=#6C767D;fontColor=#6C767D;resizeWidth=1;fontSize=18;align=left;spacing=20;" vertex="1" parent="dFHWu7-HV-Utm9xsT1JL-31">
          <mxGeometry width="250" height="50" relative="1" as="geometry" />
        </mxCell>
        <mxCell id="dFHWu7-HV-Utm9xsT1JL-34" value="" style="html=1;verticalLabelPosition=bottom;align=center;labelBackgroundColor=#ffffff;verticalAlign=top;strokeWidth=2;strokeColor=#0080F0;shadow=0;dashed=0;shape=mxgraph.ios7.icons.looking_glass;fillColor=#343A40;" vertex="1" parent="dFHWu7-HV-Utm9xsT1JL-1">
          <mxGeometry x="115" y="570" width="30" height="30" as="geometry" />
        </mxCell>
        <mxCell id="dFHWu7-HV-Utm9xsT1JL-50" value="Find Content" style="text;html=1;strokeColor=none;fillColor=none;align=center;verticalAlign=middle;whiteSpace=wrap;rounded=0;fontSize=20;" vertex="1" parent="dFHWu7-HV-Utm9xsT1JL-1">
          <mxGeometry x="47.5" y="620" width="165" height="20" as="geometry" />
        </mxCell>
      </root>
    </mxGraphModel>
  </diagram>
</mxfile>
